<svg xmlns="http://www.w3.org/2000/svg" xmlns:xlink="http://www.w3.org/1999/xlink" width="1000" zoomAndPan="magnify" viewBox="0 0 750 225" height="300" preserveAspectRatio="xMidYMid meet" version="1.0"><defs><g/><clipPath id="cf66f2090d"><path d="M 0 48.910156 L 169.5 48.910156 L 169.5 176.410156 L 0 176.410156 Z M 0 48.910156 " clip-rule="nonzero"/></clipPath></defs><g fill="#000000" fill-opacity="1"><g transform="translate(204.065456, 154.246475)"><g><path d="M 33.171875 -20.15625 L 73.0625 -20.15625 L 73.0625 0 L 11.4375 0 L 11.4375 -100.078125 L 71.484375 -100.078125 L 71.484375 -80.0625 L 33.171875 -80.0625 L 33.171875 -60.328125 L 67.765625 -60.328125 L 67.765625 -40.75 L 33.171875 -40.75 Z M 33.171875 -20.15625 "/></g></g></g><g fill="#000000" fill-opacity="1"><g transform="translate(283.979692, 154.246475)"><g><path d="M 60.625 -77.203125 L 82.34375 -77.203125 L 51.609375 0 L 32.3125 0 L 1 -77.203125 L 23.15625 -77.203125 L 42.171875 -25.453125 Z M 60.625 -77.203125 "/></g></g></g><g fill="#000000" fill-opacity="1"><g transform="translate(367.467882, 154.246475)"><g><path d="M 84.921875 -38.890625 C 84.921875 -36.890625 84.78125 -34.835938 84.5 -32.734375 L 26.15625 -32.734375 C 27.019531 -27.492188 29.117188 -23.46875 32.453125 -20.65625 C 35.785156 -17.84375 39.976562 -16.4375 45.03125 -16.4375 C 48.65625 -16.4375 51.894531 -17.222656 54.75 -18.796875 C 57.613281 -20.367188 59.804688 -22.539062 61.328125 -25.3125 L 83.34375 -25.3125 C 80.488281 -16.914062 75.628906 -10.238281 68.765625 -5.28125 C 61.898438 -0.332031 53.988281 2.140625 45.03125 2.140625 C 37.40625 2.140625 30.566406 0.351562 24.515625 -3.21875 C 18.460938 -6.789062 13.695312 -11.648438 10.21875 -17.796875 C 6.738281 -23.941406 5 -30.875 5 -38.59375 C 5 -46.320312 6.738281 -53.257812 10.21875 -59.40625 C 13.695312 -65.550781 18.460938 -70.410156 24.515625 -73.984375 C 30.566406 -77.554688 37.40625 -79.34375 45.03125 -79.34375 C 52.945312 -79.34375 59.90625 -77.507812 65.90625 -73.84375 C 71.914062 -70.175781 76.585938 -65.289062 79.921875 -59.1875 C 83.253906 -53.082031 84.921875 -46.316406 84.921875 -38.890625 Z M 45.03125 -61.625 C 40.363281 -61.625 36.429688 -60.335938 33.234375 -57.765625 C 30.046875 -55.191406 27.878906 -51.613281 26.734375 -47.03125 L 64.046875 -47.03125 C 60.992188 -56.757812 54.65625 -61.625 45.03125 -61.625 Z M 45.03125 -61.625 "/></g></g></g><g fill="#000000" fill-opacity="1"><g transform="translate(457.246282, 154.246475)"><g><path d="M 54.046875 -79.0625 C 62.804688 -79.0625 69.738281 -76.128906 74.84375 -70.265625 C 79.945312 -64.398438 82.5 -56.5625 82.5 -46.75 L 82.5 0 L 61.625 0 L 61.625 -43.46875 C 61.625 -55 57.144531 -60.765625 48.1875 -60.765625 C 42.84375 -60.765625 38.617188 -58.953125 35.515625 -55.328125 C 32.421875 -51.703125 30.875 -46.796875 30.875 -40.609375 L 30.875 0 L 10 0 L 10 -77.203125 L 24.296875 -77.203125 L 28.453125 -67.625 C 31.304688 -71.144531 34.972656 -73.929688 39.453125 -75.984375 C 43.929688 -78.035156 48.796875 -79.0625 54.046875 -79.0625 Z M 54.046875 -79.0625 "/></g></g></g><g fill="#000000" fill-opacity="1"><g transform="translate(548.883163, 154.246475)"><g><path d="M 47.75 -18.578125 L 57.1875 -18.578125 L 57.1875 0 L 42.46875 0 C 33.976562 0 27.28125 -2.453125 22.375 -7.359375 C 17.46875 -12.265625 15.015625 -19.007812 15.015625 -27.59375 L 15.015625 -60.46875 L 1 -60.46875 L 1 -64.90625 L 31.59375 -97.359375 L 35.453125 -97.359375 L 35.453125 -77.203125 L 56.765625 -77.203125 L 56.765625 -60.46875 L 35.890625 -60.46875 L 35.890625 -30.3125 C 35.890625 -26.59375 36.910156 -23.707031 38.953125 -21.65625 C 41.003906 -19.601562 43.9375 -18.578125 47.75 -18.578125 Z M 47.75 -18.578125 "/></g></g></g><g fill="#000000" fill-opacity="1"><g transform="translate(610.355652, 154.246475)"><g><path d="M 10 -87.5 L 10 -106.9375 L 30.875 -106.9375 L 30.875 -87.5 Z M 10 0 L 10 -77.203125 L 30.875 -77.203125 L 30.875 0 Z M 10 0 "/></g></g></g><g fill="#000000" fill-opacity="1"><g transform="translate(651.241989, 154.246475)"><g><path d="M 73.0625 -77.34375 L 88.640625 -77.34375 L 88.640625 -0.140625 L 72.203125 -0.140625 L 70.484375 -7 C 67.148438 -4.144531 63.359375 -1.90625 59.109375 -0.28125 C 54.867188 1.332031 50.320312 2.140625 45.46875 2.140625 C 37.75 2.140625 30.835938 0.351562 24.734375 -3.21875 C 18.628906 -6.789062 13.8125 -11.648438 10.28125 -17.796875 C 6.757812 -23.941406 5 -30.925781 5 -38.75 C 5 -46.46875 6.757812 -53.398438 10.28125 -59.546875 C 13.8125 -65.691406 18.628906 -70.523438 24.734375 -74.046875 C 30.835938 -77.578125 37.75 -79.34375 45.46875 -79.34375 C 50.414062 -79.34375 55.035156 -78.507812 59.328125 -76.84375 C 63.617188 -75.175781 67.429688 -72.863281 70.765625 -69.90625 Z M 47.171875 -17.578125 C 51.179688 -17.578125 54.78125 -18.484375 57.96875 -20.296875 C 61.164062 -22.109375 63.671875 -24.609375 65.484375 -27.796875 C 67.296875 -30.992188 68.203125 -34.644531 68.203125 -38.75 C 68.203125 -42.75 67.296875 -46.34375 65.484375 -49.53125 C 63.671875 -52.726562 61.164062 -55.253906 57.96875 -57.109375 C 54.78125 -58.972656 51.179688 -59.90625 47.171875 -59.90625 C 43.078125 -59.90625 39.457031 -58.972656 36.3125 -57.109375 C 33.164062 -55.253906 30.6875 -52.726562 28.875 -49.53125 C 27.0625 -46.34375 26.15625 -42.75 26.15625 -38.75 C 26.15625 -34.644531 27.0625 -31.019531 28.875 -27.875 C 30.6875 -24.726562 33.164062 -22.222656 36.3125 -20.359375 C 39.457031 -18.503906 43.078125 -17.578125 47.171875 -17.578125 Z M 47.171875 -17.578125 "/></g></g></g><g clip-path="url(#cf66f2090d)"><path fill="#624cf5" d="M 87.328125 48.910156 C 122.445312 48.910156 150.90625 77.371094 150.90625 112.488281 C 150.90625 116.585938 150.519531 120.585938 149.773438 124.46875 L 53.730469 124.46875 C 58.652344 138.277344 71.828125 148.148438 87.328125 148.148438 C 97.664062 148.148438 106.976562 143.757812 113.492188 136.710938 L 151.046875 136.710938 C 152.535156 133.375 155.875 131.046875 159.753906 131.046875 C 165.011719 131.046875 169.265625 135.316406 169.265625 140.558594 C 169.265625 145.820312 165.011719 150.074219 159.753906 150.074219 C 155.875 150.074219 152.535156 147.746094 151.046875 144.410156 L 127.257812 144.410156 C 126.464844 142.28125 124.417969 140.777344 122.027344 140.777344 C 118.925781 140.777344 116.425781 143.277344 116.425781 146.363281 C 116.425781 149.453125 118.925781 151.964844 122.027344 151.964844 C 124.417969 151.964844 126.464844 150.445312 127.257812 148.320312 L 139.859375 148.320312 C 128.40625 165.078125 109.148438 176.082031 87.328125 176.082031 C 52.210938 176.082031 23.734375 147.605469 23.734375 112.488281 C 23.734375 108.933594 24.03125 105.457031 24.605469 102.058594 L 73.96875 102.058594 C 76.359375 107.039062 81.449219 110.46875 87.328125 110.46875 C 95.507812 110.46875 102.132812 103.84375 102.132812 95.664062 C 102.132812 87.503906 95.507812 80.875 87.328125 80.875 C 81.449219 80.875 76.359375 84.304688 73.96875 89.289062 L 21.917969 89.289062 C 20.152344 93.292969 16.132812 96.101562 11.460938 96.101562 C 5.144531 96.101562 0.0234375 90.980469 0.0234375 84.648438 C 0.0234375 78.332031 5.144531 73.210938 11.460938 73.210938 C 16.132812 73.210938 20.152344 76.019531 21.917969 80.023438 L 46.050781 80.023438 C 46.933594 83.25 49.882812 85.625 53.390625 85.625 C 57.597656 85.625 60.996094 82.210938 60.996094 78.003906 C 60.996094 73.800781 57.597656 70.402344 53.390625 70.402344 C 49.882812 70.402344 46.933594 72.761719 46.050781 75.988281 L 35.265625 75.988281 C 46.765625 59.617188 65.789062 48.910156 87.328125 48.910156 Z M 87.328125 48.910156 " fill-opacity="1" fill-rule="evenodd"/></g></svg>