<svg xmlns="http://www.w3.org/2000/svg" xmlns:xlink="http://www.w3.org/1999/xlink" width="750" zoomAndPan="magnify" viewBox="0 0 562.5 168.749997" height="225" preserveAspectRatio="xMidYMid meet" version="1.0"><defs><g/><clipPath id="d8b533b53a"><path d="M 0.167969 36.628906 L 127 36.628906 L 127 132 L 0.167969 132 Z M 0.167969 36.628906 " clip-rule="nonzero"/></clipPath></defs><g clip-path="url(#d8b533b53a)"><path fill="#624cf5" d="M 65.566406 36.628906 C 91.863281 36.628906 113.179688 57.941406 113.179688 84.242188 C 113.179688 87.308594 112.890625 90.304688 112.332031 93.214844 L 40.40625 93.214844 C 44.089844 103.554688 53.957031 110.945312 65.566406 110.945312 C 73.304688 110.945312 80.28125 107.660156 85.160156 102.382812 L 113.285156 102.382812 C 114.398438 99.882812 116.898438 98.140625 119.804688 98.140625 C 123.742188 98.140625 126.929688 101.335938 126.929688 105.261719 C 126.929688 109.203125 123.742188 112.390625 119.804688 112.390625 C 116.898438 112.390625 114.398438 110.644531 113.285156 108.148438 L 95.46875 108.148438 C 94.875 106.554688 93.34375 105.425781 91.550781 105.425781 C 89.230469 105.425781 87.355469 107.300781 87.355469 109.609375 C 87.355469 111.925781 89.230469 113.804688 91.550781 113.804688 C 93.34375 113.804688 94.875 112.667969 95.46875 111.074219 L 104.90625 111.074219 C 96.328125 123.625 81.90625 131.867188 65.566406 131.867188 C 39.265625 131.867188 17.941406 110.539062 17.941406 84.242188 C 17.941406 81.578125 18.164062 78.976562 18.59375 76.429688 L 55.5625 76.429688 C 57.351562 80.160156 61.164062 82.730469 65.566406 82.730469 C 71.691406 82.730469 76.652344 77.769531 76.652344 71.640625 C 76.652344 65.53125 71.691406 60.566406 65.566406 60.566406 C 61.164062 60.566406 57.351562 63.136719 55.5625 66.867188 L 16.582031 66.867188 C 15.257812 69.867188 12.25 71.96875 8.75 71.96875 C 4.019531 71.96875 0.183594 68.132812 0.183594 63.390625 C 0.183594 58.664062 4.019531 54.828125 8.75 54.828125 C 12.25 54.828125 15.257812 56.929688 16.582031 59.929688 L 34.652344 59.929688 C 35.316406 62.34375 37.523438 64.125 40.148438 64.125 C 43.300781 64.125 45.847656 61.566406 45.847656 58.417969 C 45.847656 55.269531 43.300781 52.722656 40.148438 52.722656 C 37.523438 52.722656 35.316406 54.492188 34.652344 56.90625 L 26.578125 56.90625 C 35.1875 44.648438 49.433594 36.628906 65.566406 36.628906 Z M 65.566406 36.628906 " fill-opacity="1" fill-rule="evenodd"/></g><g fill="#ffffff" fill-opacity="1"><g transform="translate(147.439206, 112.496567)"><g><path d="M 53.140625 -79.390625 C 53.316406 -79.472656 53.617188 -79.5625 54.046875 -79.65625 C 55.441406 -79.914062 56.523438 -80.046875 57.296875 -80.046875 C 57.910156 -80.046875 58.410156 -79.914062 58.796875 -79.65625 C 59.179688 -79.394531 59.765625 -77.703125 60.546875 -74.578125 C 60.640625 -74.054688 60.726562 -73.625 60.8125 -73.28125 C 61.851562 -68.601562 62.585938 -65.832031 63.015625 -64.96875 C 63.273438 -64.1875 63.40625 -63.582031 63.40625 -63.15625 C 63.40625 -62.71875 63.273438 -62.410156 63.015625 -62.234375 C 62.328125 -61.972656 59.425781 -61.84375 54.3125 -61.84375 C 49.457031 -61.84375 44 -61.671875 37.9375 -61.328125 C 31.875 -60.984375 28.757812 -60.59375 28.59375 -60.15625 C 28.414062 -59.988281 28.15625 -57.21875 27.8125 -51.84375 L 27.421875 -44.953125 L 29.625 -44.953125 C 31.1875 -44.953125 34.800781 -45.34375 40.46875 -46.125 C 46.144531 -46.90625 49.894531 -47.515625 51.71875 -47.953125 C 53.96875 -48.460938 55.222656 -48.71875 55.484375 -48.71875 C 55.660156 -48.71875 55.878906 -47.640625 56.140625 -45.484375 C 56.304688 -43.742188 56.710938 -41.078125 57.359375 -37.484375 C 58.015625 -33.890625 58.472656 -31.75 58.734375 -31.0625 C 58.734375 -30.96875 58.734375 -30.921875 58.734375 -30.921875 C 58.734375 -30.835938 58.6875 -30.75 58.59375 -30.65625 C 58.507812 -30.570312 58.117188 -30.488281 57.421875 -30.40625 C 56.734375 -30.320312 55.828125 -30.28125 54.703125 -30.28125 L 54.578125 -30.28125 C 54.578125 -30.28125 54.53125 -30.28125 54.4375 -30.28125 L 54.3125 -30.28125 C 54.3125 -30.28125 54.269531 -30.28125 54.1875 -30.28125 L 53.921875 -30.28125 C 53.835938 -30.28125 53.753906 -30.28125 53.671875 -30.28125 L 53.53125 -30.28125 C 53.445312 -30.28125 53.363281 -30.28125 53.28125 -30.28125 L 52.75 -30.28125 C 52.75 -30.28125 52.707031 -30.28125 52.625 -30.28125 L 50.671875 -30.28125 C 50.585938 -30.28125 50.503906 -30.28125 50.421875 -30.28125 L 49.765625 -30.28125 C 43.265625 -30.28125 38.066406 -30.101562 34.171875 -29.75 L 28.0625 -29.5 L 28.0625 -22.484375 C 28.0625 -18.671875 28.191406 -15.722656 28.453125 -13.640625 L 28.71875 -11.4375 L 33.90625 -11.5625 C 41.007812 -11.738281 48.332031 -12.601562 55.875 -14.15625 C 60.46875 -15.289062 62.847656 -15.859375 63.015625 -15.859375 C 63.273438 -15.859375 63.625 -14.035156 64.0625 -10.390625 C 64.582031 -6.148438 65.015625 -3.035156 65.359375 -1.046875 C 65.878906 1.554688 66.140625 3.078125 66.140625 3.515625 C 66.140625 4.023438 61.984375 4.28125 53.671875 4.28125 C 52.453125 4.28125 51.148438 4.28125 49.765625 4.28125 C 47.941406 4.28125 46.164062 4.28125 44.4375 4.28125 C 35.6875 4.28125 27.628906 4.457031 20.265625 4.8125 C 13.253906 5.070312 9.007812 5.203125 7.53125 5.203125 C 7.101562 5.203125 6.890625 5.203125 6.890625 5.203125 C 6.890625 5.203125 6.890625 5.070312 6.890625 4.8125 C 6.890625 4.195312 7.0625 2.894531 7.40625 0.90625 C 8.613281 -6.101562 9.28125 -14.585938 9.40625 -24.546875 C 9.539062 -34.515625 9.609375 -41.054688 9.609375 -44.171875 C 9.609375 -56.472656 9.265625 -66.695312 8.578125 -74.84375 C 8.578125 -74.925781 8.578125 -74.96875 8.578125 -74.96875 C 8.578125 -75.226562 8.835938 -75.445312 9.359375 -75.625 C 10.222656 -75.800781 14.421875 -76.015625 21.953125 -76.265625 C 34.773438 -76.617188 45.171875 -77.660156 53.140625 -79.390625 Z M 53.140625 -79.390625 "/></g></g></g><g fill="#ffffff" fill-opacity="1"><g transform="translate(218.124259, 112.496567)"><g><path d="M 46.515625 -54.703125 C 46.597656 -54.960938 46.859375 -55.09375 47.296875 -55.09375 C 47.472656 -55.09375 47.691406 -55.050781 47.953125 -54.96875 C 49.242188 -54.789062 52.445312 -54.53125 57.5625 -54.1875 C 63.019531 -53.84375 65.75 -53.539062 65.75 -53.28125 C 65.75 -52.925781 64.445312 -49.890625 61.84375 -44.171875 C 58.46875 -36.816406 55.265625 -29.539062 52.234375 -22.34375 C 46.171875 -8.144531 42.617188 0.6875 41.578125 4.15625 C 41.398438 4.414062 40.8125 4.609375 39.8125 4.734375 C 38.820312 4.867188 36.507812 4.9375 32.875 4.9375 L 24.296875 4.9375 L 23.125 0.78125 C 21.914062 -3.03125 18.492188 -11.648438 12.859375 -25.078125 C 12.515625 -25.859375 11.539062 -28.195312 9.9375 -32.09375 C 8.332031 -35.988281 7.269531 -38.585938 6.75 -39.890625 C 5.019531 -44.046875 3.632812 -47.269531 2.59375 -49.5625 C 1.5625 -51.863281 1.046875 -53.144531 1.046875 -53.40625 C 1.046875 -53.582031 3.46875 -53.84375 8.3125 -54.1875 C 13.164062 -54.53125 16.503906 -54.703125 18.328125 -54.703125 L 20.015625 -54.703125 L 20.921875 -51.328125 C 22.222656 -46.648438 24.582031 -39.9375 28 -31.1875 C 31.425781 -22.4375 33.269531 -18.0625 33.53125 -18.0625 C 33.695312 -18.0625 34.273438 -19.335938 35.265625 -21.890625 C 36.265625 -24.453125 37.5 -27.8125 38.96875 -31.96875 C 40.445312 -36.125 41.796875 -40.238281 43.015625 -44.3125 C 43.523438 -45.78125 44.082031 -47.398438 44.6875 -49.171875 C 45.300781 -50.953125 45.757812 -52.273438 46.0625 -53.140625 C 46.363281 -54.003906 46.515625 -54.523438 46.515625 -54.703125 Z M 46.515625 -54.703125 "/></g></g></g><g fill="#ffffff" fill-opacity="1"><g transform="translate(285.041175, 112.496567)"><g><path d="M 27.671875 -54.1875 C 29.316406 -54.53125 30.921875 -54.703125 32.484375 -54.703125 C 36.554688 -54.703125 40.582031 -53.660156 44.5625 -51.578125 C 50.539062 -48.546875 54.351562 -42.914062 56 -34.6875 C 56.4375 -32.613281 56.65625 -30.835938 56.65625 -29.359375 C 56.65625 -28.410156 56.476562 -27.304688 56.125 -26.046875 C 55.78125 -24.796875 54.613281 -23.738281 52.625 -22.875 C 49.070312 -21.3125 41.835938 -20.226562 30.921875 -19.625 L 21.046875 -19.09375 L 21.5625 -17.28125 C 22.4375 -14.164062 24 -11.65625 26.25 -9.75 C 27.632812 -8.53125 28.972656 -7.75 30.265625 -7.40625 C 31.566406 -7.0625 33 -6.890625 34.5625 -6.890625 C 35.257812 -6.890625 35.992188 -6.929688 36.765625 -7.015625 C 41.960938 -7.453125 47.078125 -9.921875 52.109375 -14.421875 L 55.875 -17.796875 L 55.875 -15.328125 C 55.875 -12.734375 55.265625 -10.023438 54.046875 -7.203125 C 52.835938 -4.390625 51.410156 -2.207031 49.765625 -0.65625 C 46.554688 2.289062 43.195312 4.132812 39.6875 4.875 C 36.1875 5.613281 33.3125 5.984375 31.0625 5.984375 C 28.457031 5.984375 25.859375 5.675781 23.265625 5.0625 C 18.328125 3.9375 14.210938 1.597656 10.921875 -1.953125 C 8.234375 -4.890625 6.390625 -7.875 5.390625 -10.90625 C 4.390625 -13.945312 3.890625 -17.890625 3.890625 -22.734375 C 3.890625 -31.054688 5.882812 -37.945312 9.875 -43.40625 C 11.695312 -45.914062 14.296875 -48.164062 17.671875 -50.15625 C 21.046875 -52.144531 24.378906 -53.488281 27.671875 -54.1875 Z M 35.078125 -42.359375 C 33.691406 -43.054688 32.566406 -43.40625 31.703125 -43.40625 C 30.660156 -43.40625 29.445312 -43.015625 28.0625 -42.234375 C 26.675781 -41.453125 25.640625 -40.628906 24.953125 -39.765625 C 24.085938 -38.722656 23.285156 -37.359375 22.546875 -35.671875 C 21.804688 -33.984375 21.4375 -32.789062 21.4375 -32.09375 C 21.4375 -31.570312 21.546875 -31.289062 21.765625 -31.25 C 21.984375 -31.207031 22.175781 -31.1875 22.34375 -31.1875 C 22.863281 -31.1875 23.90625 -31.269531 25.46875 -31.4375 C 32.832031 -32.050781 37.207031 -32.703125 38.59375 -33.390625 C 39.195312 -33.648438 39.5 -34.34375 39.5 -35.46875 C 39.5 -35.5625 39.476562 -35.929688 39.4375 -36.578125 C 39.394531 -37.222656 39.023438 -38.109375 38.328125 -39.234375 C 37.640625 -40.617188 36.554688 -41.660156 35.078125 -42.359375 Z M 35.078125 -42.359375 "/></g></g></g><g fill="#ffffff" fill-opacity="1"><g transform="translate(344.941564, 112.496567)"><g><path d="M 38.84375 -54.96875 C 40.320312 -55.226562 41.796875 -55.359375 43.265625 -55.359375 C 46.734375 -55.359375 50.375 -54.425781 54.1875 -52.5625 C 58 -50.695312 59.90625 -47.125 59.90625 -41.84375 L 59.90625 -20.015625 C 59.988281 -7.109375 60.160156 0.425781 60.421875 2.59375 C 60.597656 3.894531 60.6875 4.765625 60.6875 5.203125 C 60.6875 5.285156 60.660156 5.390625 60.609375 5.515625 C 60.566406 5.648438 60.460938 5.71875 60.296875 5.71875 C 60.117188 5.71875 59.898438 5.675781 59.640625 5.59375 C 58.859375 5.5 55.476562 5.0625 49.5 4.28125 L 40.671875 3.125 L 40.9375 1.171875 C 41.1875 -1.078125 41.460938 -5.863281 41.765625 -13.1875 C 42.078125 -20.507812 42.234375 -25.726562 42.234375 -28.84375 C 42.234375 -30.320312 42.1875 -31.445312 42.09375 -32.21875 C 41.925781 -34.644531 41.753906 -36.203125 41.578125 -36.890625 C 41.398438 -37.585938 40.925781 -38.328125 40.15625 -39.109375 C 39.113281 -40.234375 37.8125 -40.796875 36.25 -40.796875 C 33.394531 -40.710938 30.363281 -39.628906 27.15625 -37.546875 L 24.171875 -35.46875 L 24.171875 -16.765625 C 24.171875 -9.921875 24.300781 -4.375 24.5625 -0.125 C 24.820312 2.382812 24.953125 4.070312 24.953125 4.9375 C 24.953125 5.375 24.90625 5.632812 24.8125 5.71875 C 24.8125 5.71875 24.679688 5.71875 24.421875 5.71875 C 23.554688 5.71875 20.957031 5.414062 16.625 4.8125 C 11.425781 4.113281 8.222656 3.765625 7.015625 3.765625 L 5.203125 3.765625 L 5.59375 0.78125 C 6.28125 -6.144531 6.644531 -12.359375 6.6875 -17.859375 C 6.726562 -23.367188 6.75 -26.46875 6.75 -27.15625 C 6.75 -37.207031 6.445312 -44.613281 5.84375 -49.375 C 5.582031 -51.28125 5.453125 -52.492188 5.453125 -53.015625 C 5.453125 -53.097656 5.453125 -53.140625 5.453125 -53.140625 C 5.453125 -53.140625 5.5 -53.140625 5.59375 -53.140625 C 6.28125 -53.140625 10.65625 -52.664062 18.71875 -51.71875 C 20.875 -51.375 22.234375 -51.113281 22.796875 -50.9375 C 23.367188 -50.757812 23.738281 -50.410156 23.90625 -49.890625 C 24.082031 -49.367188 24.253906 -49.109375 24.421875 -49.109375 C 24.515625 -49.109375 24.644531 -49.148438 24.8125 -49.234375 C 24.988281 -49.328125 26.160156 -49.894531 28.328125 -50.9375 C 32.742188 -53.101562 36.25 -54.445312 38.84375 -54.96875 Z M 38.84375 -54.96875 "/></g></g></g><g fill="#ffffff" fill-opacity="1"><g transform="translate(410.818991, 112.496567)"><g><path d="M 14.6875 -75.75 C 14.769531 -75.925781 14.941406 -76.015625 15.203125 -76.015625 C 15.378906 -76.015625 15.597656 -75.972656 15.859375 -75.890625 C 17.148438 -75.273438 20.046875 -74.578125 24.546875 -73.796875 C 29.054688 -73.023438 32.050781 -72.640625 33.53125 -72.640625 C 33.78125 -72.640625 33.925781 -72.269531 33.96875 -71.53125 C 34.019531 -70.789062 34.046875 -70.117188 34.046875 -69.515625 C 34.046875 -68.390625 34 -66.675781 33.90625 -64.375 C 33.820312 -62.082031 33.648438 -59.335938 33.390625 -56.140625 L 33.140625 -52.890625 L 35.21875 -53.28125 C 36.945312 -53.625 39.285156 -54.1875 42.234375 -54.96875 C 44.484375 -55.65625 46 -56 46.78125 -56 C 47.125 -56 47.335938 -55.914062 47.421875 -55.75 C 47.597656 -54.96875 48.332031 -52.800781 49.625 -49.25 C 50.925781 -45.695312 51.753906 -43.570312 52.109375 -42.875 L 53.140625 -40.9375 L 51.0625 -40.671875 C 50.113281 -40.492188 47.644531 -40.191406 43.65625 -39.765625 C 40.195312 -39.328125 37.644531 -38.976562 36 -38.71875 L 33.390625 -38.46875 L 33.265625 -32.484375 C 33.265625 -31.359375 33.265625 -30.234375 33.265625 -29.109375 C 33.265625 -25.898438 33.351562 -22.953125 33.53125 -20.265625 C 33.875 -16.023438 34.304688 -12.953125 34.828125 -11.046875 C 35.347656 -9.140625 36.171875 -7.882812 37.296875 -7.28125 C 37.984375 -6.757812 39.492188 -6.390625 41.828125 -6.171875 C 44.171875 -5.953125 46.082031 -5.84375 47.5625 -5.84375 C 48.507812 -5.84375 49.414062 -5.890625 50.28125 -5.984375 C 51.144531 -6.066406 51.882812 -6.109375 52.5 -6.109375 C 53.28125 -6.109375 53.671875 -6.019531 53.671875 -5.84375 C 53.671875 -5.414062 52.539062 -4.050781 50.28125 -1.75 C 48.03125 0.539062 46.34375 2.078125 45.21875 2.859375 C 42.96875 4.328125 40.890625 5.363281 38.984375 5.96875 C 37.078125 6.582031 34.691406 6.890625 31.828125 6.890625 C 29.410156 6.890625 27.742188 6.800781 26.828125 6.625 C 25.921875 6.445312 24.773438 6.015625 23.390625 5.328125 C 21.398438 4.367188 19.710938 3.195312 18.328125 1.8125 C 16.679688 -0.09375 15.726562 -1.953125 15.46875 -3.765625 C 15.207031 -5.585938 15.078125 -8.664062 15.078125 -13 C 15.078125 -15.414062 15.117188 -18.359375 15.203125 -21.828125 L 15.46875 -36.25 L 11.171875 -35.21875 C 8.484375 -34.601562 6.96875 -34.296875 6.625 -34.296875 C 6.539062 -34.296875 6.5 -34.296875 6.5 -34.296875 C 6.40625 -34.390625 5.773438 -36.492188 4.609375 -40.609375 C 3.441406 -44.722656 2.726562 -47.253906 2.46875 -48.203125 C 2.46875 -48.296875 2.46875 -48.382812 2.46875 -48.46875 C 2.46875 -48.894531 2.703125 -49.148438 3.171875 -49.234375 C 3.648438 -49.328125 5.320312 -49.460938 8.1875 -49.640625 C 12 -49.804688 14.164062 -49.976562 14.6875 -50.15625 C 15.03125 -50.238281 15.222656 -51.578125 15.265625 -54.171875 C 15.304688 -56.773438 15.328125 -58.335938 15.328125 -58.859375 C 15.328125 -62.929688 15.15625 -66.832031 14.8125 -70.5625 C 14.632812 -72.550781 14.546875 -73.976562 14.546875 -74.84375 C 14.546875 -75.363281 14.59375 -75.664062 14.6875 -75.75 Z M 14.6875 -75.75 "/></g></g></g><g fill="#ffffff" fill-opacity="1"><g transform="translate(466.431487, 112.496567)"><g><path d="M 13 -78.21875 C 13.945312 -78.65625 14.984375 -78.875 16.109375 -78.875 C 17.234375 -78.875 18.707031 -78.523438 20.53125 -77.828125 C 22.351562 -77.140625 23.695312 -75.882812 24.5625 -74.0625 C 24.90625 -73.195312 25.078125 -72.242188 25.078125 -71.203125 C 25.078125 -70.597656 25.035156 -69.945312 24.953125 -69.25 C 24.429688 -66.914062 23.347656 -64.925781 21.703125 -63.28125 C 20.054688 -61.632812 18.234375 -60.8125 16.234375 -60.8125 C 14.421875 -60.8125 12.734375 -61.4375 11.171875 -62.6875 C 9.609375 -63.945312 8.546875 -65.269531 7.984375 -66.65625 C 7.421875 -68.039062 7.140625 -69.34375 7.140625 -70.5625 C 7.140625 -71.070312 7.25 -71.929688 7.46875 -73.140625 C 7.6875 -74.359375 8.445312 -75.488281 9.75 -76.53125 C 10.957031 -77.3125 12.039062 -77.875 13 -78.21875 Z M 7.796875 -41.1875 C 7.796875 -41.445312 7.796875 -41.707031 7.796875 -41.96875 L 7.796875 -42.09375 C 7.796875 -42.445312 7.796875 -42.796875 7.796875 -43.140625 L 7.796875 -43.265625 C 7.796875 -43.359375 7.796875 -43.445312 7.796875 -43.53125 L 7.796875 -43.78125 C 7.796875 -43.957031 7.796875 -44.132812 7.796875 -44.3125 L 7.796875 -44.5625 C 7.796875 -44.65625 7.796875 -44.742188 7.796875 -44.828125 L 7.796875 -47.8125 C 7.796875 -49.550781 7.816406 -50.9375 7.859375 -51.96875 C 7.898438 -53.007812 7.941406 -53.742188 7.984375 -54.171875 C 8.035156 -54.609375 8.144531 -54.828125 8.3125 -54.828125 C 9.613281 -54.304688 13.6875 -53.703125 20.53125 -53.015625 L 24.5625 -52.625 L 24.296875 -47.296875 C 24.117188 -43.304688 24.03125 -38.238281 24.03125 -32.09375 C 24.03125 -28.976562 24.070312 -23.800781 24.15625 -16.5625 C 24.25 -9.332031 24.554688 -3.851562 25.078125 -0.125 C 25.515625 3.769531 25.734375 6.191406 25.734375 7.140625 C 25.734375 7.398438 25.734375 7.53125 25.734375 7.53125 C 25.734375 7.53125 25.6875 7.53125 25.59375 7.53125 C 25.070312 7.53125 21.628906 6.921875 15.265625 5.703125 C 8.898438 4.492188 5.546875 3.765625 5.203125 3.515625 L 5.59375 -0.265625 C 7.0625 -13.953125 7.796875 -27.59375 7.796875 -41.1875 Z M 7.796875 -41.1875 "/></g></g></g><g fill="#ffffff" fill-opacity="1"><g transform="translate(497.48614, 112.496567)"><g><path d="M 33.53125 -11.046875 C 34.300781 -11.566406 34.726562 -12.109375 34.8125 -12.671875 C 34.90625 -13.234375 34.910156 -14.8125 34.828125 -17.40625 L 34.6875 -22.734375 L 31.703125 -22.21875 C 26.160156 -20.914062 22.78125 -18.707031 21.5625 -15.59375 C 20.875 -14.03125 20.789062 -12.425781 21.3125 -10.78125 C 21.832031 -9.132812 22.65625 -8.179688 23.78125 -7.921875 C 25.164062 -7.492188 26.785156 -7.582031 28.640625 -8.1875 C 30.503906 -8.789062 32.132812 -9.742188 33.53125 -11.046875 Z M 24.5625 -54.4375 C 30.789062 -56 36.484375 -55.675781 41.640625 -53.46875 C 46.796875 -51.257812 50.109375 -47.644531 51.578125 -42.625 C 52.097656 -41.320312 52.488281 -36.125 52.75 -27.03125 C 53.007812 -17.84375 53.316406 -12.6875 53.671875 -11.5625 C 54.273438 -8.96875 55.832031 -7.671875 58.34375 -7.671875 C 59.90625 -7.671875 60.898438 -7.539062 61.328125 -7.28125 C 61.765625 -7.019531 61.722656 -6.410156 61.203125 -5.453125 C 60.421875 -4.066406 58.925781 -2.378906 56.71875 -0.390625 C 54.507812 1.597656 52.582031 2.984375 50.9375 3.765625 C 49.550781 4.460938 48.507812 4.894531 47.8125 5.0625 C 47.125 5.238281 46.390625 5.238281 45.609375 5.0625 C 42.398438 4.800781 39.628906 3.332031 37.296875 0.65625 L 35.859375 -1.046875 L 34.171875 0.125 C 32.960938 1.082031 31.144531 2.082031 28.71875 3.125 C 26.988281 3.8125 25.625 4.304688 24.625 4.609375 C 23.625 4.910156 22.085938 5.109375 20.015625 5.203125 C 17.847656 5.285156 16.351562 5.28125 15.53125 5.1875 C 14.707031 5.101562 13.554688 4.71875 12.078125 4.03125 C 5.753906 1.164062 2.851562 -4.117188 3.375 -11.828125 C 3.894531 -18.234375 7.535156 -23.472656 14.296875 -27.546875 C 15.679688 -28.242188 17.78125 -29.128906 20.59375 -30.203125 C 23.40625 -31.285156 25.765625 -32.003906 27.671875 -32.359375 C 27.929688 -32.441406 28.601562 -32.566406 29.6875 -32.734375 C 30.769531 -32.910156 31.570312 -33.046875 32.09375 -33.140625 L 35.078125 -33.65625 L 34.828125 -36 C 34.210938 -40.757812 32.128906 -43.203125 28.578125 -43.328125 C 25.035156 -43.460938 20.664062 -41.273438 15.46875 -36.765625 C 14.425781 -35.554688 13.726562 -34.90625 13.375 -34.8125 C 13.03125 -34.726562 12.726562 -34.863281 12.46875 -35.21875 C 11.601562 -36.507812 9.523438 -39.238281 6.234375 -43.40625 L 4.671875 -45.21875 L 6.234375 -46.25 C 8.484375 -47.726562 11.6875 -49.351562 15.84375 -51.125 C 20.007812 -52.90625 22.914062 -54.007812 24.5625 -54.4375 Z M 24.5625 -54.4375 "/></g></g></g></svg>